<mxfile host="app.diagrams.net" agent="Mozilla/5.0 (Windows NT 10.0; Win64; x64) AppleWebKit/537.36 (KHTML, like Gecko) Chrome/135.0.0.0 Safari/537.36 Edg/135.0.0.0" version="26.2.9">
  <diagram name="第 1 页" id="si69G99XR_lyDajFAGBi">
    <mxGraphModel dx="1969" dy="2517" grid="1" gridSize="10" guides="1" tooltips="1" connect="1" arrows="1" fold="1" page="1" pageScale="1" pageWidth="827" pageHeight="1169" math="0" shadow="0">
      <root>
        <mxCell id="0" />
        <mxCell id="1" parent="0" />
        <mxCell id="ux2gcaLxbNXoQ8U2DFR7-10" style="edgeStyle=orthogonalEdgeStyle;rounded=0;orthogonalLoop=1;jettySize=auto;html=1;entryX=0.5;entryY=0;entryDx=0;entryDy=0;" edge="1" parent="1" source="ux2gcaLxbNXoQ8U2DFR7-1" target="ux2gcaLxbNXoQ8U2DFR7-2">
          <mxGeometry relative="1" as="geometry" />
        </mxCell>
        <mxCell id="ux2gcaLxbNXoQ8U2DFR7-1" value="开始" style="rounded=1;whiteSpace=wrap;html=1;" vertex="1" parent="1">
          <mxGeometry x="340" y="-1030" width="120" height="60" as="geometry" />
        </mxCell>
        <mxCell id="ux2gcaLxbNXoQ8U2DFR7-9" value="" style="edgeStyle=orthogonalEdgeStyle;rounded=0;orthogonalLoop=1;jettySize=auto;html=1;" edge="1" parent="1" source="ux2gcaLxbNXoQ8U2DFR7-2" target="ux2gcaLxbNXoQ8U2DFR7-7">
          <mxGeometry relative="1" as="geometry" />
        </mxCell>
        <mxCell id="ux2gcaLxbNXoQ8U2DFR7-2" value="用户登录" style="rounded=1;whiteSpace=wrap;html=1;" vertex="1" parent="1">
          <mxGeometry x="340" y="-950" width="120" height="60" as="geometry" />
        </mxCell>
        <mxCell id="ux2gcaLxbNXoQ8U2DFR7-12" style="edgeStyle=orthogonalEdgeStyle;rounded=0;orthogonalLoop=1;jettySize=auto;html=1;entryX=0.5;entryY=0;entryDx=0;entryDy=0;" edge="1" parent="1" source="ux2gcaLxbNXoQ8U2DFR7-4" target="ux2gcaLxbNXoQ8U2DFR7-5">
          <mxGeometry relative="1" as="geometry" />
        </mxCell>
        <mxCell id="ux2gcaLxbNXoQ8U2DFR7-4" value="&amp;nbsp;指定监控区域" style="rounded=1;whiteSpace=wrap;html=1;" vertex="1" parent="1">
          <mxGeometry x="340" y="-780" width="120" height="60" as="geometry" />
        </mxCell>
        <mxCell id="ux2gcaLxbNXoQ8U2DFR7-14" style="edgeStyle=orthogonalEdgeStyle;rounded=0;orthogonalLoop=1;jettySize=auto;html=1;entryX=0.5;entryY=0;entryDx=0;entryDy=0;" edge="1" parent="1" source="ux2gcaLxbNXoQ8U2DFR7-5" target="ux2gcaLxbNXoQ8U2DFR7-6">
          <mxGeometry relative="1" as="geometry" />
        </mxCell>
        <mxCell id="ux2gcaLxbNXoQ8U2DFR7-5" value="设置预警条件" style="rounded=1;whiteSpace=wrap;html=1;" vertex="1" parent="1">
          <mxGeometry x="340" y="-700" width="120" height="60" as="geometry" />
        </mxCell>
        <mxCell id="ux2gcaLxbNXoQ8U2DFR7-6" value="激活预警任务" style="rounded=1;whiteSpace=wrap;html=1;" vertex="1" parent="1">
          <mxGeometry x="340" y="-620" width="120" height="60" as="geometry" />
        </mxCell>
        <mxCell id="ux2gcaLxbNXoQ8U2DFR7-11" style="edgeStyle=orthogonalEdgeStyle;rounded=0;orthogonalLoop=1;jettySize=auto;html=1;entryX=0.5;entryY=0;entryDx=0;entryDy=0;" edge="1" parent="1" source="ux2gcaLxbNXoQ8U2DFR7-7" target="ux2gcaLxbNXoQ8U2DFR7-4">
          <mxGeometry relative="1" as="geometry" />
        </mxCell>
        <mxCell id="ux2gcaLxbNXoQ8U2DFR7-7" value="指定监控对象" style="rounded=1;whiteSpace=wrap;html=1;" vertex="1" parent="1">
          <mxGeometry x="340" y="-870" width="120" height="60" as="geometry" />
        </mxCell>
      </root>
    </mxGraphModel>
  </diagram>
</mxfile>
